<svg xmlns="http://www.w3.org/2000/svg" xmlns:xlink="http://www.w3.org/1999/xlink" width="500" zoomAndPan="magnify" viewBox="0 0 375 374.999991" height="500" preserveAspectRatio="xMidYMid meet" version="1.0"><rect x="-37.5" width="450" fill="#ffffff" y="-37.499999" height="449.999989" fill-opacity="1"/><rect x="-37.5" width="450" fill="#ffffff" y="-37.499999" height="449.999989" fill-opacity="1"/><rect x="-37.5" width="450" fill="#ffffff" y="-37.499999" height="449.999989" fill-opacity="1"/><path fill="#00000" d="M 238.582031 320.234375 C 257.019531 338.164062 288.597656 344.929688 315.546875 330.421875 C 335.679688 319.566406 353.496094 297.273438 351.3125 265.679688 C 349.84375 244.277344 312.828125 183.226562 291.894531 148.917969 C 276.082031 122.976562 262.898438 94.855469 240.585938 73.632812 C 194.21875 29.578125 136.851562 55.210938 117.921875 103 C 133.820312 94.410156 145.667969 88.671875 173.953125 93.519531 C 225.574219 102.375 251.941406 172.636719 275.949219 214.464844 C 281.785156 224.609375 287.484375 234.578125 293.675781 245.167969 C 297.550781 251.796875 301.960938 259.582031 303.789062 267.015625 C 308.820312 287.527344 288.597656 298.519531 271.273438 283.96875 C 248.558594 264.878906 225.617188 212.460938 214.664062 192.972656 C 196.847656 161.199219 175.421875 128.230469 129.5 135.972656 C 83.625 143.757812 65.183594 191.546875 40.332031 235.644531 C 11.511719 286.683594 50.84375 345.328125 108.386719 337.273438 C 125.3125 334.917969 136.984375 327.351562 146.070312 317.429688 C 152.261719 310.710938 165.3125 291.445312 168.695312 282.765625 L 142.550781 237.601562 C 142.105469 238.003906 141.882812 238.359375 140.546875 239.960938 L 123.175781 269.417969 C 103.488281 303.058594 75.695312 294.78125 77.523438 272.175781 C 78.8125 255.445312 95.203125 232.886719 100.28125 224.253906 C 115.292969 198.621094 138.007812 157.285156 165.042969 199.601562 C 169.988281 207.390625 175.421875 217.757812 179.074219 223.984375 C 182.59375 229.949219 185.355469 234.976562 188.785156 240.984375 C 204.730469 265.902344 218.136719 300.34375 238.582031 320.234375 Z M 238.582031 320.234375 " fill-opacity="1" fill-rule="evenodd"/></svg>